Coordinates
version=1
nRows=49
nColumns=12
inDegrees=yes

Units are S.I. units (second, meters, Newtons, ...)
Angles are in degrees

endheader
time	SC_y	SC_z	SC_x	AC_y	AC_z	AC_x	GH_y	GH_z	GH_yy	EL_x	PS_y
       0.0              -18.38          7.207          23.46          56.36         0.9572         0.1389          66.07         -12.74         -174.7          117.2          19.75
   0.04759              -18.38          7.206          23.46          56.36         0.9574         0.1401          66.05         -12.73         -174.7          117.2          19.75
   0.09517              -18.38          7.205          23.46          56.36         0.9576         0.1413          66.02         -12.72         -174.7          117.2          19.74
    0.1428              -18.38          7.204          23.46          56.36         0.9578         0.1426           66.0         -12.72         -174.6          117.2          19.74
    0.1903              -18.38          7.203          23.46          56.36          0.958          0.144          65.97         -12.71         -174.6          117.2          19.74
    0.2379              -18.38          7.201          23.46          56.36         0.9583         0.1454          65.94         -12.71         -174.6          117.1          19.74
    0.2855              -18.39            7.2          23.46          56.36         0.9586          0.147          65.91          -12.7         -174.6          117.1          19.74
    0.3331              -18.39          7.199          23.45          56.36         0.9589         0.1487          65.88         -12.69         -174.6          117.1          19.74
    0.3807              -18.39          7.197          23.45          56.36         0.9592         0.1505          65.85         -12.68         -174.5          117.1          19.74
    0.4283              -18.39          7.195          23.45          56.36         0.9595         0.1524          65.81         -12.68         -174.5          117.1          19.74
    0.4759               -18.4          7.194          23.45          56.36         0.9598         0.1545          65.77         -12.67         -174.5          117.0          19.74
    0.5235               -18.4          7.192          23.45          56.36         0.9602         0.1567          65.73         -12.66         -174.4          117.0          19.74
     0.571               -18.4           7.19          23.45          56.36         0.9606         0.1591          65.68         -12.65         -174.4          117.0          19.73
    0.6186               -18.4          7.188          23.44          56.36         0.9611         0.1617          65.63         -12.63         -174.4          116.9          19.73
    0.6662              -18.41          7.185          23.44          56.36         0.9616         0.1645          65.58         -12.62         -174.3          116.9          19.73
    0.7138              -18.41          7.183          23.44          56.36         0.9621         0.1675          65.52         -12.61         -174.3          116.9          19.73
    0.7614              -18.41           7.18          23.44          56.36         0.9626         0.1708          65.46         -12.59         -174.3          116.8          19.73
     0.809              -18.42          7.177          23.44          56.36         0.9633         0.1744          65.39         -12.58         -174.2          116.8          19.72
    0.8566              -18.42          7.174          23.43          56.36         0.9639         0.1784          65.31         -12.56         -174.2          116.7          19.72
    0.9042              -18.43           7.17          23.43          56.36         0.9647         0.1827          65.23         -12.54         -174.1          116.7          19.72
    0.9517              -18.43          7.166          23.43          56.36         0.9655         0.1874          65.14         -12.52         -174.0          116.6          19.72
    0.9993              -18.44          7.162          23.42          56.36         0.9664         0.1926          65.04         -12.49         -174.0          116.6          19.71
     1.047              -18.45          7.157          23.42          56.36         0.9673         0.1983          64.93         -12.47         -173.9          116.5          19.71
     1.095              -18.45          7.152          23.41          56.36         0.9684         0.2047          64.81         -12.44         -173.8          116.4          19.71
     1.142              -18.46          7.146          23.41          56.36         0.9696         0.2118          64.68         -12.41         -173.7          116.3           19.7
      1.19              -18.47          7.139           23.4          56.36          0.971         0.2197          64.52         -12.37         -173.6          116.2           19.7
     1.237              -18.48          7.132           23.4          56.36         0.9725         0.2285          64.36         -12.33         -173.5          116.1          19.69
     1.285              -18.49          7.124          23.39          56.36         0.9742         0.2385          64.17         -12.29         -173.4          116.0          19.69
     1.332              -18.51          7.114          23.38          56.36         0.9761         0.2497          63.95         -12.24         -173.2          115.9          19.68
      1.38              -18.52          7.104          23.37          56.36         0.9783         0.2625          63.71         -12.18         -173.0          115.7          19.67
     1.428              -18.54          7.092          23.36          56.36         0.9808          0.277          63.43         -12.12         -172.8          115.6          19.66
     1.475              -18.56          7.078          23.35          56.36         0.9836         0.2938          63.11         -12.04         -172.6          115.4          19.65
     1.523              -18.58          7.062          23.34          56.37         0.9869         0.3131          62.74         -11.95         -172.4          115.1          19.64
      1.57               -18.6          7.043          23.32          56.37         0.9908         0.3355          62.31         -11.85         -172.1          114.9          19.63
     1.618              -18.63          7.021           23.3          56.37         0.9953         0.3617          61.81         -11.73         -171.7          114.5          19.61
     1.666              -18.67          6.995          23.28          56.37          1.001         0.3927          61.22          -11.6         -171.3          114.2          19.59
     1.713              -18.71          6.965          23.25          56.37          1.007         0.4294          60.52         -11.43         -170.8          113.7          19.57
     1.761              -18.76          6.928          23.22          56.37          1.014         0.4735          59.67         -11.23         -170.2          113.2          19.54
     1.808              -18.82          6.884          23.19          56.37          1.023         0.5268          58.65         -10.99         -169.5          112.5          19.51
     1.856               -18.9           6.83          23.14          56.38          1.035          0.592          57.41          -10.7         -168.6          111.8          19.47
     1.903              -18.99          6.763          23.08          56.38          1.048         0.6723          55.87         -10.34         -167.5          110.8          19.42
     1.951              -19.11          6.679          23.01          56.38          1.065         0.7726          53.96         -9.889         -166.2          109.6          19.36
     1.999              -19.25          6.574          22.92          56.39          1.087         0.8989          51.54         -9.322         -164.5          108.1          19.28
     2.046              -19.44           6.44          22.81          56.39          1.114          1.059          48.47         -8.601         -162.4          106.1          19.19
     2.094              -19.68          6.269          22.66           56.4           1.15          1.265          44.55         -7.678         -159.6          103.7          19.06
     2.141              -19.98           6.05          22.47          56.41          1.195          1.529          39.51         -6.493         -156.1          100.5           18.9
     2.189              -20.37          5.769          22.23          56.42          1.252          1.865          33.07          -4.98         -151.6          96.44          18.69
     2.237              -20.86          5.417          21.93          56.44          1.325          2.289          24.97         -3.078         -145.9          91.34          18.44
     2.284              -21.45          4.987          21.57          56.45          1.413          2.805          15.11        -0.7591         -139.0          85.13          18.12
